<?xml version="1.0" encoding="UTF-8"?>
<svg width="224px" height="22px" viewBox="0 0 224 22" version="1.1" xmlns="http://www.w3.org/2000/svg" xmlns:xlink="http://www.w3.org/1999/xlink">
    <title>coa-logo</title>
    <g id="Main" stroke="none" stroke-width="1" fill="none" fill-rule="evenodd">
        <g id="CoA/builder/GL-Edit" transform="translate(-265.000000, -25.000000)" fill="#FFFFFF">
            <g id="coa-logo" transform="translate(265.000000, 25.728000)">
                <g id="CoA-picker-Copy" transform="translate(110.392000, 0.000000)" fill-rule="nonzero">
                    <path d="M8.064,16.56 C10.656,16.56 12.528,15.456 13.944,13.704 L12.792,12.984 C11.784,14.376 10.032,15.312 8.064,15.312 C4.344,15.312 1.44,12.408 1.44,8.28 C1.44,4.104 4.344,1.248 8.064,1.248 C10.032,1.248 11.784,2.184 12.792,3.576 L13.944,2.832 C12.576,1.128 10.656,0 8.064,0 C3.576,0 0,3.36 0,8.28 C0,13.2 3.576,16.56 8.064,16.56 Z" id="Path"></path>
                    <path d="M21.576,16.56 C25.008,16.56 27.168,13.848 27.168,10.464 C27.168,7.08 25.008,4.392 21.576,4.392 C18.192,4.392 16.008,7.08 16.008,10.464 C16.008,13.848 18.192,16.56 21.576,16.56 Z M21.576,15.432 C18.888,15.432 17.352,13.056 17.352,10.464 C17.352,7.896 18.888,5.52 21.576,5.52 C24.312,5.52 25.824,7.896 25.824,10.464 C25.824,13.056 24.312,15.432 21.576,15.432 Z" id="Shape"></path>
                    <path d="M43.608,16.272 L37.056,0.264 L35.352,0.264 L28.8,16.272 L30.336,16.272 L31.944,12.336 L40.464,12.336 L42.072,16.272 L43.608,16.272 Z M40.032,11.088 L32.376,11.088 L36.192,1.608 L40.032,11.088 Z" id="Shape"></path>
                    <path d="M53.376,14.4 C54.312,15.72 55.776,16.56 57.408,16.56 C60.504,16.56 62.592,14.16 62.592,10.464 C62.592,6.744 60.504,4.392 57.408,4.392 C55.68,4.392 54.192,5.328 53.376,6.504 L53.376,4.68 L52.128,4.68 L52.128,20.688 L53.376,20.688 L53.376,14.4 Z M61.248,10.464 C61.248,13.272 59.784,15.432 57.192,15.432 C55.584,15.432 54.048,14.424 53.376,13.32 L53.376,7.584 C54.048,6.48 55.584,5.52 57.192,5.52 C59.784,5.52 61.248,7.656 61.248,10.464 Z" id="Shape"></path>
                    <path d="M66.432,2.712 C66.96,2.712 67.392,2.28 67.392,1.752 C67.392,1.224 66.96,0.792 66.432,0.792 C65.928,0.792 65.472,1.224 65.472,1.752 C65.472,2.28 65.928,2.712 66.432,2.712 Z M67.056,16.272 L67.056,4.68 L65.808,4.68 L65.808,16.272 L67.056,16.272 Z" id="Shape"></path>
                    <path d="M70.272,10.464 C70.272,13.848 72.504,16.56 75.912,16.56 C77.928,16.56 79.08,15.768 80.016,14.568 L79.152,13.8 C78.312,14.952 77.256,15.432 75.984,15.432 C73.272,15.432 71.616,13.248 71.616,10.464 C71.616,7.68 73.272,5.52 75.984,5.52 C77.256,5.52 78.312,5.976 79.152,7.128 L80.016,6.36 C79.08,5.184 77.928,4.392 75.912,4.392 C72.504,4.392 70.272,7.08 70.272,10.464 Z" id="Path"></path>
                    <polygon id="Path" points="92.52 16.272 87.144 9.912 92.544 4.68 90.888 4.68 84.048 11.304 84.048 0.264 82.8 0.264 82.8 16.272 84.048 16.272 84.048 12.792 86.208 10.752 90.84 16.272"></polygon>
                    <path d="M93.72,10.464 C93.72,14.04 96.144,16.56 99.528,16.56 C101.448,16.56 102.912,15.888 104.064,14.688 L103.416,13.872 C102.432,14.928 101.088,15.48 99.624,15.48 C96.888,15.48 95.208,13.392 95.088,10.872 L104.784,10.872 L104.784,10.536 C104.784,7.2 102.84,4.392 99.312,4.392 C96.096,4.392 93.72,7.104 93.72,10.464 Z M99.288,5.472 C102.192,5.472 103.488,7.92 103.512,9.888 L95.088,9.888 C95.184,7.872 96.552,5.472 99.288,5.472 Z" id="Shape"></path>
                    <path d="M109.248,16.272 L109.248,7.824 C109.776,6.816 111.36,5.76 112.536,5.76 C112.776,5.76 112.944,5.76 113.16,5.808 L113.16,4.44 C111.552,4.44 110.232,5.376 109.248,6.672 L109.248,4.68 L108,4.68 L108,16.272 L109.248,16.272 Z" id="Path"></path>
                </g>
                <g id="davis-copy-2" transform="translate(0.000000, 0.272000)">
                    <path d="M91.1869171,15.4846154 L92.8505246,11.1568332 L93.1381977,11.4033257 C94.1579071,12.2223559 95.5417984,12.9190439 96.8473447,12.9467668 C98.0151751,12.9732843 98.5850127,12.6671273 98.4301589,11.6938132 C98.3157017,10.9675944 97.4820617,10.8392254 96.9605777,10.7385793 L95.8190663,10.5137829 C93.5972506,10.1045692 91.7285995,8.75518822 91.7285995,6.19745142 C91.7285995,2.33071266 95.1133491,0.162301493 98.5176849,0.162301493 C100.305543,0.162301493 101.947728,0.610688906 103.482188,1.59485106 L102.040762,5.42964824 C101.248743,4.86795864 100.052146,4.07785662 98.5360471,4.02421888 C98.0378217,4.00553607 96.8956982,4.26408204 97.2611043,5.40373338 C97.4190185,5.88948641 98.1259598,6.09379197 98.5611419,6.19745142 L99.8513865,6.50421109 C102.257435,7.05625796 104,8.40624156 104,11.1676812 C104,15.0549108 100.59444,16.9780348 97.2127507,16.9780348 C95.2382114,16.9780348 92.9527404,16.4247826 91.1869171,15.4846154" id="Fill-3"></path>
                    <polygon id="Fill-4" points="84.1670811 16.7333503 89.9627762 16.7333503 89.9627762 0.428079516 84.1670811 0.428079516"></polygon>
                    <polyline id="Fill-5" points="77.6313927 0.427476845 83.567252 0.427476845 77.50347 16.7333503 72.6870876 16.7333503 66.6428919 0.427476845 72.5585528 0.427476845 75.0961969 10.2672904 77.6313927 0.427476845"></polyline>
                    <path d="M61.2211718,5.13433933 L61.2211718,5.13433933 C61.3264479,5.82801394 62.3645194,10.8187346 62.3645194,10.8187346 L60.0857811,10.8187346 L61.2211718,5.13433933 Z M52.5824094,16.7333503 L58.6045706,16.7333503 L59.0630114,14.6854733 L63.359746,14.6854733 L63.9301956,16.7333503 L69.9560292,16.7333503 L64.3158,0.428079516 L57.9986208,0.428079516 L52.5824094,16.7333503 L52.5824094,16.7333503 Z" id="Fill-6"></path>
                    <path d="M37.6919594,0.427476845 L43.6284307,0.427476845 C48.9271246,0.427476845 52.9741345,2.8224924 52.9741345,8.81605802 C52.9741345,13.6446601 49.6762989,16.7333503 45.0429255,16.7333503 L37.6919594,16.7243102 L37.6919594,0.427476845 Z M43.526827,12.0518 L43.9154918,12.0518 C45.8257636,12.0518 47.2433188,10.9229967 47.2433188,8.79496452 C47.2433188,6.50421109 45.9879623,5.22654803 43.8891727,5.22654803 L43.526827,5.22654803 L43.526827,12.0518 L43.526827,12.0518 Z" id="Fill-7"></path>
                    <path d="M34.2258044,0.939144739 L34.535512,3.61560777 C34.6077364,4.2502206 34.9768148,5.77377353 34.5202103,5.57007065 C34.2362096,5.44471503 34.0017866,4.75405377 33.7691998,4.13993176 C33.6510702,3.82835073 33.0867413,2.35542218 32.9392323,2.24694136 C32.2249461,1.7220147 30.4456573,1.12898618 29.2417147,1.12356214 C25.5913265,1.11030337 23.1767085,3.76205689 23.1767085,8.4683167 C23.1767085,11.8432757 24.8170574,15.8920212 28.9919899,15.8920212 C30.4878901,15.8920212 33.3523799,15.428567 34.1327697,13.3330791 C34.4853223,12.3844745 34.8072713,11.5413374 35.0404702,11.7980754 C35.2142982,11.9843008 34.9884442,12.7436666 34.8843922,13.1528804 C34.3922876,15.0952898 34.3653565,15.6840996 34.2105026,15.7594335 C32.3247136,16.6929713 29.9051991,16.999731 27.7886594,16.999731 C21.0558844,16.999731 18.7318529,13.1323895 18.7318529,9.26625344 C18.7318529,2.55671438 22.9178027,-0.269211124 29.4051375,0.0200710778 C31.0467104,0.0803382031 32.6888955,0.367812391 34.2258044,0.939144739" id="Fill-9"></path>
                    <path d="M14.3494284,1.23686434 L13.2709603,0.866221517 C12.9104508,0.54560041 13.3511415,0.455802394 13.3511415,0.455802394 C13.3511415,0.455802394 14.9088608,0.740865896 18.7899996,0.416026091 C18.7899996,0.416026091 19.1266383,0.4829226 18.8946636,0.751713979 L17.620333,1.28929674 C16.7909775,1.64547545 16.7909775,1.44116989 16.7909775,2.3361367 L16.7836326,10.6457679 C16.7836326,17.1455774 10.071056,16.999731 8.76306141,16.999731 C8.13936162,16.999731 1.98193284,16.999731 1.98193284,11.7824059 L1.98193284,2.98521364 C1.98193284,1.45201797 2.14902808,1.49179428 1.63121647,1.31280092 L0.0741092365,0.737249869 C0.0741092365,0.737249869 -0.1903052,0.369017733 0.279764909,0.392521912 C1.55287145,0.455802394 3.39520352,0.723991101 7.72927441,0.416026091 C7.72927441,0.416026091 8.10692188,0.50702945 7.85842128,0.775218158 L6.56266813,1.1350129 C5.57662262,1.57014154 5.70699363,1.23686434 5.6806746,2.23428526 L5.71189019,10.9073273 C5.71189019,13.0341541 6.82341014,15.6678275 10.3189445,15.6678275 C15.0771802,15.6678275 15.1224734,11.6148633 15.1224734,10.7132671 L15.1304303,2.12158574 C15.1812322,1.31280092 15.0771802,1.54302133 14.3494284,1.23686434" id="Fill-11"></path>
                </g>
            </g>
        </g>
    </g>
</svg>